<svg width="121" height="48" viewBox="0 0 121 48" fill="none" xmlns="http://www.w3.org/2000/svg">
<path d="M23.0885 34.8568V26.9959H33.4089C34.5725 26.9959 35.5843 27.3964 36.3432 28.0974C37.102 28.7984 37.5573 29.7497 37.5573 30.9013C37.5573 32.0028 37.102 33.0042 36.3432 33.7052C35.5843 34.4062 34.5725 34.8568 33.4089 34.8568H28.2487H23.0885ZM23.0885 20.6871V13.1266H31.7395C32.8524 13.1266 33.8137 13.5272 34.5219 14.1781C35.2302 14.829 35.6349 15.7803 35.6349 16.8818C35.6349 17.9834 35.2302 18.9347 34.5219 19.5856C33.8137 20.2866 32.8524 20.6871 31.7395 20.6871H27.4393H23.0885ZM105.5 23.9917C105.5 23.491 105.5 22.9903 105.449 22.4896C105.399 21.9889 105.348 21.4882 105.247 20.9875H98.1644H91.0818L88.957 24.3422L86.8322 27.6969H97.7091C97.0514 29.8498 95.8373 31.7525 94.1172 33.1044C92.4477 34.4562 90.3229 35.2073 87.844 35.2073C84.758 35.2073 82.0261 33.9555 80.0531 31.9027C78.0801 29.8498 76.8659 27.046 76.8659 23.9917C76.8659 20.9875 78.0801 18.2337 80.1037 16.1809C82.1273 14.1781 84.9098 12.9263 87.9958 12.9263C89.3617 12.9263 90.5759 13.1266 91.7395 13.5272C92.903 13.9277 93.9148 14.4785 94.8761 15.1795L96.7479 12.1753L98.6703 9.17113C97.2032 8.16973 95.5843 7.36862 93.8137 6.81786C92.043 6.26709 90.1206 5.96667 88.0464 5.96667C85.3145 5.96667 82.8356 6.46737 80.6602 7.36862C78.4848 8.26987 76.5624 9.57168 74.9435 11.1739C71.0987 14.9792 69.9857 18.8846 69.2268 22.4396C68.468 25.9945 68.0127 29.249 65.382 31.8526C64.269 32.9542 63.0548 33.7553 61.7395 34.306C60.4241 34.8568 59.0076 35.1572 57.4393 35.1572C54.2521 35.1572 51.4191 33.8554 49.3449 31.8526C47.2707 29.7998 46.0059 27.046 46.0059 23.9917C46.0059 21.0376 47.2707 18.2838 49.3449 16.2309C51.4191 14.1781 54.2521 12.9263 57.4393 12.8763C58.7546 12.8763 60.0194 13.0765 61.1324 13.4771C62.2454 13.8276 63.3078 14.3784 64.2184 15.0793L66.1408 12.0752L68.0632 9.07099C66.5961 8.0696 64.9772 7.26848 63.2066 6.76779C61.3853 6.21702 59.4629 5.96667 57.4393 5.96667C54.3027 5.96667 51.3685 6.71772 48.7884 8.01953C46.2083 9.32133 44.0329 11.224 42.414 13.4771C41.7563 11.5244 40.441 9.82203 38.6197 8.62036C36.7479 7.41869 34.4207 6.71772 31.8406 6.71772H23.645H15.5V23.9917V41.2657H33.5101C35.7867 41.2657 37.8103 40.7149 39.4798 39.8137C41.1492 38.9124 42.5152 37.5606 43.4258 36.0084C45.0953 37.8109 47.1189 39.313 49.446 40.3644C51.7732 41.4159 54.3533 41.9667 57.1358 41.9667C60.4241 41.9667 63.4089 41.2156 65.989 39.8638C68.5691 38.5119 70.7445 36.5592 72.414 34.2059C74.0329 36.5592 76.2083 38.5119 78.7884 39.8638C81.3685 41.2156 84.4039 41.9667 87.6922 41.9667C92.7007 41.9667 97.1526 39.9639 100.34 36.6593C103.578 33.4549 105.5 28.9486 105.5 23.9917Z" fill="#00532F"/>
</svg>
