<svg width="347" height="48" viewBox="0 0 347 48" fill="none" xmlns="http://www.w3.org/2000/svg">
<path d="M90.487 35.5454C88.4228 35.5454 86.4994 35.1703 84.7167 34.4201C82.934 33.67 81.3859 32.6385 80.0723 31.3257C78.7587 30.013 77.7266 28.4189 76.976 26.6373C76.2254 24.8557 75.8501 22.8865 75.8501 20.8236C75.8501 18.7607 76.2254 16.7915 76.976 15.0099C77.7266 13.2283 78.7587 11.6811 80.0723 10.3214C81.3859 9.00865 82.934 7.93031 84.7167 7.22704C86.4994 6.47688 88.4228 6.10181 90.487 6.10181C92.5512 6.10181 94.4746 6.47688 96.2573 7.22704C98.04 7.97719 99.5882 9.00865 100.902 10.3214C102.215 11.6342 103.247 13.2283 103.998 15.0099C104.749 16.7915 105.124 18.7607 105.124 20.8236C105.124 22.8865 104.749 24.8557 103.998 26.6373C103.247 28.4189 102.215 29.9661 100.902 31.3257C99.5882 32.6385 98.04 33.7169 96.2573 34.4201C94.5216 35.2172 92.5981 35.5454 90.487 35.5454ZM90.487 30.8569C92.2697 30.8569 93.8648 30.4349 95.2253 29.5441C96.6327 28.7002 97.7117 27.4812 98.5092 25.9809C99.3067 24.4806 99.7289 22.7459 99.7289 20.8705C99.7289 18.9482 99.3067 17.2135 98.5092 15.7132C97.7117 14.2128 96.6327 13.0407 95.2253 12.1499C93.8179 11.306 92.2697 10.8372 90.487 10.8372C88.7043 10.8372 87.1093 11.2591 85.7488 12.1499C84.3414 12.9938 83.2624 14.2128 82.4649 15.7132C81.6673 17.2135 81.2451 18.9482 81.2451 20.8705C81.2451 22.7927 81.6673 24.4806 82.4649 25.9809C83.2624 27.4812 84.3414 28.7002 85.7488 29.5441C87.1562 30.3881 88.7512 30.8569 90.487 30.8569Z" fill="#032C78"/>
<path d="M108.971 34.889V6.80505H113.991V30.3411V34.889H108.971Z" fill="#032C78"/>
<path d="M124.827 8.3992C124.827 9.29 124.546 10.0402 123.983 10.6028C123.42 11.1654 122.669 11.4936 121.778 11.4936C120.887 11.4936 120.136 11.2123 119.573 10.6028C119.01 10.0402 118.729 9.29 118.729 8.3992C118.729 7.50839 119.01 6.75823 119.573 6.19562C120.136 5.633 120.887 5.30481 121.778 5.30481C122.669 5.30481 123.42 5.58612 123.983 6.19562C124.546 6.75823 124.827 7.50839 124.827 8.3992ZM119.245 34.889V13.5565H124.265V30.8569V34.889H119.245Z" fill="#032C78"/>
<path d="M135.664 34.889L127.126 13.5565H132.24L138.338 29.1691L144.343 13.5565H149.175L140.731 34.889H135.664Z" fill="#032C78"/>
<path d="M162.17 35.5454C159.872 35.5454 157.807 35.1235 155.978 34.2327C154.195 33.3887 152.741 32.1229 151.709 30.435C150.677 28.7472 150.161 26.6842 150.161 24.2462C150.161 21.9958 150.63 20.0266 151.568 18.3388C152.506 16.6509 153.773 15.2913 155.415 14.3067C157.057 13.3221 158.886 12.8533 160.998 12.8533C163.015 12.8533 164.751 13.2752 166.252 14.166C167.753 15.0568 168.879 16.2758 169.723 17.823C170.521 19.4171 170.943 21.2456 170.943 23.3554C170.943 23.6367 170.943 23.918 170.896 24.1994L170.802 25.4652H155.133C155.415 27.2469 156.212 28.6065 157.479 29.638C158.746 30.6225 160.482 31.1383 162.64 31.1383C165.407 31.1383 167.941 30.2944 170.239 28.5596V32.9668C169.114 33.7169 167.847 34.3264 166.44 34.7953C165.032 35.3579 163.578 35.5454 162.17 35.5454ZM160.763 16.7447C159.168 16.7447 157.901 17.2135 156.916 18.1981C155.931 19.1827 155.321 20.5424 155.087 22.2771H166.205C166.205 21.9489 166.158 21.6676 166.111 21.4332C165.877 19.886 165.267 18.7607 164.375 17.9168C163.437 17.1667 162.217 16.7447 160.763 16.7447Z" fill="#032C78"/>
<path d="M175.353 34.889V13.5565H180.138L180.185 18.0105C180.748 16.5571 181.639 15.385 182.765 14.541C183.938 13.6971 185.252 13.2283 186.706 13.2283C187.081 13.2283 187.55 13.2752 188.113 13.322C188.676 13.4158 189.099 13.5096 189.427 13.6033V18.3856C189.052 18.2449 188.536 18.1512 187.879 18.0574C187.222 17.9636 186.659 17.9167 186.096 17.9167C184.267 17.9167 182.812 18.5262 181.874 19.6984C180.889 20.8705 180.42 22.6052 180.42 24.9025V34.889H175.353Z" fill="#032C78"/>
<path d="M199.138 34.889L190.647 6.80505H195.713L202 27.5749L208.192 7.18013H212.931L219.217 27.5281L225.597 6.80505H230.429L221.938 34.889H216.871L210.444 14.3535L204.205 34.889H199.138Z" fill="#032C78"/>
<path d="M234.745 43.0001C234.135 43.0001 233.525 42.9063 232.869 42.7656C232.212 42.625 231.602 42.4374 231.039 42.2499V37.7959C231.508 37.9834 232.071 38.1241 232.681 38.3116C233.291 38.4523 233.854 38.546 234.417 38.546C235.59 38.546 236.575 38.2647 237.325 37.7021C238.076 37.1395 238.78 36.0142 239.483 34.3733L230.288 13.6034H235.402L242.111 28.6534L248.35 13.6034H253.182L244.456 34.5139C243.471 36.8113 242.533 38.5929 241.548 39.8119C240.562 41.0309 239.53 41.8748 238.404 42.3437C237.279 42.7656 236.059 43.0001 234.745 43.0001Z" fill="#032C78"/>
<path d="M255.856 34.889V13.5565H260.688L260.735 16.9791C261.345 15.7132 262.189 14.7286 263.362 13.9785C264.535 13.2752 265.849 12.9001 267.397 12.9001C270.681 12.9001 272.933 14.3536 274.105 17.2135C274.668 15.9008 275.607 14.8693 276.873 14.0723C278.14 13.2752 279.594 12.9001 281.189 12.9001C283.676 12.9001 285.599 13.6972 286.96 15.2444C288.32 16.7916 288.977 19.042 288.977 21.9958V34.889H283.957V22.9335C283.957 19.2296 282.55 17.3542 279.688 17.3542C278.187 17.3542 277.014 17.8699 276.17 18.9483C275.325 19.9797 274.903 21.48 274.903 23.3554V34.9359H269.93V22.8866C269.93 19.1827 268.523 17.3542 265.708 17.3542C264.16 17.3542 262.987 17.8699 262.143 18.9014C261.298 19.9328 260.876 21.3863 260.876 23.2617V34.889H255.856Z" fill="#032C78"/>
<path d="M300.33 35.5453C298.125 35.5453 296.342 34.9358 294.982 33.7168C293.621 32.4978 292.964 30.8569 292.964 28.8408C292.964 27.3874 293.34 26.1215 294.043 25.0432C294.747 23.9648 295.779 23.1209 297.093 22.5114C298.406 21.9019 299.908 21.6206 301.69 21.6206C303.754 21.6206 305.631 21.9957 307.32 22.6989V22.6052C307.32 20.8235 306.851 19.417 305.912 18.4793C304.974 17.5416 303.52 17.0728 301.549 17.0728C300.377 17.0728 299.204 17.2603 297.984 17.6354C296.764 18.0105 295.638 18.5262 294.559 19.2764V14.8692C295.592 14.3066 296.717 13.8377 297.984 13.4158C299.251 13.0407 300.611 12.8063 302.066 12.8063C305.209 12.8063 307.648 13.6033 309.337 15.2443C311.026 16.8852 311.87 19.1826 311.87 22.2301V34.7952H307.554L307.461 31.7008C306.851 32.8729 305.912 33.7637 304.646 34.467C303.332 35.2171 301.878 35.5453 300.33 35.5453ZM297.609 28.5595C297.609 29.6379 297.937 30.4349 298.641 30.9975C299.345 31.5601 300.283 31.8414 301.549 31.8414C303.285 31.8414 304.646 31.3257 305.631 30.3411C306.569 29.3566 307.132 27.9031 307.273 25.9809C305.865 25.3245 304.27 24.9963 302.441 24.9963C300.846 24.9963 299.673 25.3245 298.829 25.8871C298.031 26.5904 297.609 27.4812 297.609 28.5595Z" fill="#032C78"/>
<path d="M317.125 34.889V13.5565H321.957L322.004 16.9791C322.614 15.7132 323.505 14.6818 324.678 13.9785C325.851 13.2752 327.258 12.9001 328.806 12.9001C331.293 12.9001 333.169 13.6972 334.483 15.2444C335.796 16.7916 336.5 19.042 336.5 21.9958V34.889H331.527V22.9335C331.527 19.2296 330.12 17.3542 327.211 17.3542C325.616 17.3542 324.396 17.8699 323.505 18.9483C322.614 19.9797 322.144 21.48 322.144 23.3554V34.9359H317.125V34.889Z" fill="#032C78"/>
<path d="M62.2453 11.8217L50.9861 5.35163C50.1886 4.88279 48.875 4.88279 48.1244 5.35163L17.0679 23.2147L34.2381 10.087L26.0752 5.35163C25.2777 4.88279 23.9641 4.88279 23.2135 5.35163L11.9543 11.8217C11.1568 12.2906 10.5 13.4158 10.5 14.3066V27.2468C10.5 28.1844 11.1568 29.2628 11.9543 29.7316L23.2135 36.2017C24.011 36.6706 25.3246 36.6706 26.0752 36.2017L57.0848 18.3387L39.9146 31.4664L48.1244 36.2017C48.9219 36.6706 50.2355 36.6706 50.9861 36.2017L62.2453 29.7316C63.0428 29.2628 63.6996 28.1376 63.6996 27.2468V14.3066C63.6527 13.4158 63.0428 12.2906 62.2453 11.8217Z" fill="#032C78"/>
</svg>
