<svg width="200" height="48" viewBox="0 0 200 48" fill="none" xmlns="http://www.w3.org/2000/svg">
<path d="M182.573 23.4462C182.573 21.9692 183.799 20.9846 185.454 20.9846C186.987 20.9846 187.906 21.7231 187.906 22.9538C187.906 24.0615 186.987 24.6769 185.454 25.3538L182.573 26.5846V23.4462ZM185.209 32.3692C186.864 32.3692 188.335 31.7538 189.071 30.4C189.316 29.9692 189.255 29.5385 188.887 29.2923C188.519 29.0462 188.029 29.1077 187.845 29.4769C187.232 30.4 186.374 30.8308 185.209 30.8308C183.492 30.8308 182.573 29.9692 182.573 28.3692V28.1846L185.945 26.7077C188.58 25.6 189.5 24.8615 189.5 22.7692C189.5 20.7385 187.906 19.4462 185.393 19.4462C182.879 19.4462 180.918 21.1077 180.918 23.4462V28.3692C180.979 30.7692 182.634 32.3692 185.209 32.3692ZM178.404 19.5692C176.014 19.5692 174.359 21.2923 174.359 23.9385V31.3846C174.359 31.8154 174.665 32.1846 175.155 32.1846C175.646 32.1846 175.952 31.8154 175.952 31.3846V23.9385C175.952 22.3385 176.811 21.1692 178.404 21.1692C178.65 21.1692 179.079 21.2923 179.263 21.2923C179.692 21.2923 179.998 20.9846 179.998 20.5538C179.998 20.1846 179.814 19.8769 179.324 19.7538C179.017 19.6308 178.711 19.5692 178.404 19.5692ZM164.796 28.8615C164.796 27.7538 165.715 27.1385 167.186 26.4615L170.067 25.2308V28.3077C170.067 29.7846 168.841 30.7692 167.186 30.7692C165.654 30.8308 164.796 30.1538 164.796 28.8615ZM167.493 19.4462C165.838 19.4462 164.366 20.0615 163.631 21.4154C163.386 21.8462 163.447 22.2769 163.815 22.5231C164.183 22.7692 164.673 22.7077 164.857 22.3385C165.47 21.4154 166.328 20.9846 167.493 20.9846C169.209 20.9846 170.129 21.8462 170.129 23.4462V23.6923L166.757 25.1692C164.121 26.2769 163.202 27.0154 163.202 29.1077C163.202 31.1385 164.796 32.4308 167.309 32.4308C169.822 32.4308 171.784 30.7692 171.784 28.4308V23.5077C171.723 21.0462 170.067 19.4462 167.493 19.4462ZM152.842 26.7692V21.2308C152.842 18.9538 154.558 17.1692 156.704 17.1692C158.359 17.1692 159.524 17.9077 160.259 19.2C160.443 19.5692 160.872 19.7538 161.301 19.5692C161.669 19.3846 161.853 18.9538 161.608 18.5231C160.688 16.6154 158.972 15.5692 156.704 15.5692C153.577 15.5692 151.187 17.9692 151.187 21.1692V26.7692C151.187 29.9692 153.639 32.3692 156.704 32.3692C158.972 32.3692 160.688 31.3231 161.608 29.4154C161.792 29.0462 161.669 28.5538 161.301 28.3692C160.872 28.1846 160.443 28.3692 160.259 28.7385C159.585 30.0923 158.359 30.7692 156.704 30.7692C154.497 30.7692 152.842 29.0462 152.842 26.7692ZM139.785 31.5077C139.785 31.8154 140.091 32.1846 140.582 32.1846C141.072 32.1846 141.378 31.8154 141.378 31.3846V24C141.378 22.4 142.666 21.1077 144.26 21.1077C145.853 21.1077 147.141 22.4 147.141 24V31.4462C147.141 31.8769 147.447 32.2462 147.938 32.2462C148.428 32.2462 148.735 31.8769 148.735 31.4462V24C148.735 21.6 146.834 19.6308 144.443 19.6308C143.217 19.6308 142.114 20.1846 141.378 20.9846V16.6154C141.378 16.1846 141.072 15.8154 140.582 15.8154C140.091 15.8154 139.785 16.1846 139.785 16.7385V31.5077ZM134.513 19.6923V16.5538C134.513 16.1231 134.206 15.7538 133.716 15.7538C133.225 15.7538 132.919 16.1231 132.919 16.5538V19.6923H130.957C130.528 19.6923 130.222 20 130.222 20.4308C130.222 20.8615 130.528 21.1692 130.957 21.1692H132.919V27.8154C132.919 29.0462 133.348 30.1538 134.084 30.9538C134.88 31.8154 135.923 32.1846 137.149 32.1846C137.7 32.1846 138.007 31.7538 138.007 31.3231C138.007 30.8923 137.639 30.5846 137.21 30.5846C135.432 30.5846 134.574 29.4154 134.574 27.7538V21.2308H137.271C137.7 21.2308 138.007 20.9231 138.007 20.4923C138.007 20.0615 137.7 19.7538 137.271 19.7538H134.513V19.6923ZM130.712 31.6308C130.712 31.2 130.405 30.8923 129.976 30.8308C128.996 30.7077 128.444 30.1538 128.444 29.0462V16.6154C128.444 16.1846 128.137 15.8154 127.647 15.8154C127.157 15.8154 126.85 16.1846 126.85 16.6154V28.9846C126.85 29.9077 127.095 30.6462 127.586 31.2615C128.137 31.9385 128.934 32.3692 129.915 32.3692C130.344 32.3692 130.651 32 130.712 31.6308ZM117.103 28.8615C117.103 27.7538 118.023 27.1385 119.494 26.4615L122.375 25.2308V28.3077C122.375 29.7846 121.149 30.7692 119.494 30.7692C118.023 30.8308 117.103 30.1538 117.103 28.8615ZM119.8 19.4462C118.145 19.4462 116.674 20.0615 115.938 21.4154C115.693 21.8462 115.754 22.2769 116.122 22.5231C116.49 22.7692 116.98 22.7077 117.164 22.3385C117.777 21.4154 118.636 20.9846 119.8 20.9846C121.517 20.9846 122.436 21.8462 122.436 23.4462V23.6923L119.065 25.1692C116.429 26.2769 115.509 27.0154 115.509 29.1077C115.509 31.1385 117.103 32.4308 119.616 32.4308C122.13 32.4308 124.091 30.7692 124.091 28.4308V23.5077C124.03 21.0462 122.436 19.4462 119.8 19.4462ZM106.804 23.4462C106.804 21.9692 108.03 20.9846 109.686 20.9846C111.218 20.9846 112.076 21.7231 112.076 22.9538C112.076 24.0615 111.157 24.6769 109.686 25.3538L106.804 26.5846V23.4462ZM109.44 32.3692C111.096 32.3692 112.567 31.7538 113.302 30.4C113.548 29.9692 113.486 29.5385 113.118 29.2923C112.751 29.0462 112.26 29.1077 112.076 29.4769C111.463 30.4 110.605 30.8308 109.44 30.8308C107.724 30.8308 106.804 29.9692 106.804 28.3692V28.1846L110.176 26.7077C112.812 25.6 113.732 24.8615 113.732 22.7692C113.732 20.7385 112.138 19.4462 109.624 19.4462C107.111 19.4462 105.149 21.1077 105.149 23.4462V28.3692C105.211 30.7692 106.866 32.3692 109.44 32.3692ZM102.329 31.3846V16.6154C102.329 16.1231 102.023 15.7538 101.471 15.7538C100.92 15.7538 100.613 16.1231 100.613 16.6154V22.9538H93.1342V16.6154C93.1342 16.1231 92.8277 15.7538 92.276 15.7538C91.7243 15.7538 91.4178 16.1231 91.4178 16.6154V31.3231C91.4178 31.8154 91.7856 32.1846 92.276 32.1846C92.7664 32.1846 93.1342 31.8154 93.1342 31.3231V24.4923H100.613V31.3846C100.613 31.8769 100.92 32.2462 101.471 32.2462C102.023 32.2462 102.329 31.8769 102.329 31.3846ZM84.3068 32.1231C84.736 32.1231 85.0425 31.8154 85.0425 31.3846C85.0425 30.9538 84.736 30.6462 84.3068 30.6462H77.3185V24.5538H83.6938C84.1229 24.5538 84.4294 24.2462 84.4294 23.8154C84.4294 23.3846 84.1229 23.0769 83.6938 23.0769H77.3185V17.4769H84.3068C84.736 17.4769 85.0425 17.1692 85.0425 16.7385C85.0425 16.3077 84.736 16 84.3068 16H76.5216C76.0312 16 75.6634 16.3692 75.6634 16.8615V31.3846C75.6634 31.8769 75.9699 32.2462 76.5216 32.2462L84.3068 32.1231ZM72.7209 26.7692V24.1846C72.7209 23.6923 72.4144 23.3231 71.8627 23.3231H67.3877C66.9586 23.3231 66.6521 23.6308 66.6521 24.0615C66.6521 24.4923 66.9586 24.8 67.3877 24.8H71.0658V26.7692C71.0658 28.9846 69.3493 30.8308 67.2651 30.8308C65.1808 30.8308 63.5257 29.0462 63.5257 26.7692V21.2308C63.5257 18.9538 65.1195 17.1692 67.2038 17.1692C68.7976 17.1692 69.9623 17.9077 70.6366 19.2C70.8205 19.5692 71.2497 19.7538 71.6788 19.5692C72.0466 19.3846 72.2305 18.9538 71.9853 18.5231C71.0658 16.6154 69.4106 15.5692 67.2038 15.5692C64.1387 15.5692 61.8092 17.9692 61.8092 21.1692V26.7692C61.8092 29.9077 64.2 32.3692 67.2651 32.3692C70.3301 32.3692 72.7209 29.7846 72.7209 26.7692ZM34.8979 18.7692C34.8979 16.4923 36.4305 14.2769 37.2887 14.7077C38.2082 15.2 36.5531 17.3538 34.8979 18.7692ZM24.4767 19.6308C24.4767 17.7846 26.2545 14.3385 27.3579 14.7077C28.6452 15.1385 26.2545 18.6462 24.4767 19.6308ZM22.6377 32.6769C21.8408 32.7385 21.289 32.1846 21.289 31.3231C21.289 28.9231 24.5993 26.6462 27.0514 25.4769C26.6223 28.7385 25.4575 32.5538 22.6377 32.6769ZM37.8404 24.9231C35.9401 24.9231 34.5301 26.3385 34.5301 28C34.5301 29.4154 35.3271 30.5231 36.4918 30.5231C36.8596 30.5231 37.2887 30.2769 37.2887 29.7846C37.2887 29.0462 36.3079 28.8615 36.4305 27.8154C36.4918 27.0769 37.1661 26.6462 37.7791 26.6462C39.1277 26.6462 39.7408 27.9385 39.7408 29.2923C39.6795 31.3231 38.2082 32.7385 36.4305 32.7385C34.101 32.7385 32.6298 30.5231 32.6298 28.1231C32.6298 24.5538 34.9592 23.2 36.1853 22.8308C36.1853 22.8308 39.3729 23.3846 39.2503 21.9692C39.189 21.3538 38.2695 21.1077 37.6565 21.1077C36.9209 21.1077 36.1853 21.3538 36.1853 21.3538C35.8175 21.1692 35.511 20.8 35.3884 20.3077C37.6565 18.5846 39.2503 16.9231 39.2503 15.0154C39.2503 14.0308 38.576 13.1077 37.2887 13.1077C35.0205 13.1077 33.3041 16 33.3041 18.5846C33.3041 19.0154 33.3041 19.4462 33.4267 19.8769C32.0168 20.9231 30.9134 21.6 29.013 22.7692C29.013 22.5231 29.0743 21.9077 29.1969 21.1077C29.8712 20.3692 30.7908 19.3231 30.7908 18.4615C30.7908 18.0923 30.5455 17.7231 30.1164 17.7231C29.013 17.7231 28.2161 19.3846 27.9709 20.5538C27.4805 21.1692 26.4997 21.9692 25.6414 21.9692C24.9671 21.9692 24.7832 21.3538 24.7219 21.1077C26.8062 20.3692 29.4421 17.4769 29.4421 14.8923C29.4421 14.3385 29.1969 13.1077 27.5418 13.1077C25.0284 13.1077 22.9442 16.8 22.9442 19.6923C22.086 19.6923 21.7181 18.7692 21.7181 18.0308C21.7181 17.2923 22.0247 16.6154 22.0247 16.3692C22.0247 16.1231 21.9021 15.8769 21.5955 15.8769C20.7373 15.8769 20.2469 16.9846 20.2469 18.2769C20.3082 20.0615 21.4729 21.1692 23.0055 21.2923C23.2507 22.3385 24.1702 23.3231 25.3349 23.3231C26.0705 23.3231 26.9288 23.0769 27.5418 22.5231C27.4805 22.8923 27.4192 23.2615 27.3579 23.5692C24.9058 24.8615 23.1894 25.7231 21.5342 27.2C20.2469 28.3692 19.5726 29.9077 19.5726 31.1385C19.5726 32.8 20.6147 34.3385 22.7603 34.3385C25.2736 34.3385 27.2353 32.3077 28.1548 29.4769C28.5839 28.1231 28.7678 26.2154 28.8904 24.4308C31.4038 23.0154 32.6298 22.1538 33.9784 21.2308C34.1623 21.5385 34.2849 21.7231 34.5301 21.9077C33.3654 22.5231 30.6068 24.2462 30.6068 28.3077C30.6068 31.2 32.5685 34.4 36.3692 34.4C39.4955 34.4 41.6411 31.8154 41.6411 29.2923C41.5185 27.0154 40.2312 24.9231 37.8404 24.9231ZM47.2808 29.7231C47.2808 29.7231 47.2195 29.7846 47.1582 29.7231C47.0969 29.7231 47.0969 29.6615 47.0969 29.6615C47.0969 29.6 47.7712 27.6308 47.7712 25.4154C47.7712 22.9538 46.7904 21.4769 45.5031 21.4769C44.7062 21.4769 44.1545 22.0308 44.1545 22.8923C44.1545 24.3692 45.9935 24.4923 45.9935 27.7538C45.9935 29.1077 45.687 30.3385 45.2579 31.7538C43.2349 38.7077 36.6757 41.9077 30.3616 41.9077C27.4192 41.9077 25.3349 41.2923 24.7219 41.0462C24.7219 41.0462 24.6606 40.9846 24.7219 40.9231C24.7219 40.8615 24.7832 40.8615 24.7832 40.8615C25.0284 40.9846 26.8062 41.5385 29.013 41.5385C31.4651 41.5385 32.875 40.5538 32.875 39.3231C32.875 38.5231 32.262 37.9692 31.4651 37.9692C29.9938 37.9692 29.8712 39.8769 26.6836 39.8769C25.2736 39.8769 24.1089 39.6308 22.6377 39.1385C15.8945 36.9231 12.6455 30.4 12.6455 24C12.6455 20.8615 13.5038 18.4 13.5651 18.3385C13.5651 18.3385 13.6264 18.2769 13.6877 18.3385C13.749 18.3385 13.749 18.4 13.749 18.4C13.6877 18.6462 13.0747 20.4308 13.0747 22.6462C13.0747 25.1077 14.0555 26.5231 15.3428 26.5231C16.0784 26.5231 16.6914 25.9692 16.6914 25.1692C16.6914 23.6923 14.8524 23.5077 14.8524 20.3077C14.8524 18.8923 15.1589 17.7231 15.588 16.2462C17.6723 9.35385 24.1702 6.15385 30.4842 6.09231C33.4267 6.09231 36.0014 6.95385 36.124 7.01538C36.124 7.01538 36.1853 7.07692 36.124 7.13846C36.124 7.2 36.0627 7.2 36.0627 7.2C36.0014 7.2 34.3462 6.46154 31.8329 6.46154C29.4421 6.46154 27.9709 7.44615 27.9709 8.73846C27.9709 9.47692 28.5226 10.0923 29.3195 10.0923C30.7908 10.0923 30.9134 8.24615 34.101 8.24615C35.511 8.24615 36.6757 8.55385 38.1469 8.98462C45.074 11.0769 48.2003 17.6 48.2616 23.9385C48.2003 27.2615 47.3421 29.6615 47.2808 29.7231ZM30.4229 4.92308C19.9404 4.92308 11.4195 13.4769 11.4195 24C11.4195 34.5231 19.9404 43.0769 30.4229 43.0769C40.9055 43.0769 49.4264 34.5231 49.4264 24C49.4264 13.4769 40.9055 4.92308 30.4229 4.92308ZM30.4229 44C19.45 44 10.5 35.0769 10.5 24C10.5 12.9231 19.45 4 30.4229 4C41.3959 4 50.3459 12.9846 50.3459 24C50.3459 35.0154 41.3959 44 30.4229 44Z" fill="#640ACD"/>
</svg>
