<svg width="235" height="48" viewBox="0 0 235 48" fill="none" xmlns="http://www.w3.org/2000/svg">
<path d="M93.54 32.2934C91.5749 32.2934 90.8497 31.4241 90.8497 30.038C90.8497 28.4404 91.7387 27.6181 94.0547 27.6181H97.1193V28.5343C97.1193 30.9777 95.6221 32.2934 93.54 32.2934ZM88.2062 30.2964C88.2062 32.1994 89.3057 34.2434 92.7446 34.2434C94.7331 34.2434 96.1134 33.4681 97.0725 32.2464L97.4001 33.938H99.5523V24.8223C99.5523 20.9223 97.2363 20.2409 94.4758 20.2409C92.3937 20.2409 89.6566 20.8518 89.0016 24H91.6451C91.9726 22.8253 92.768 22.144 94.4524 22.144C95.8327 22.144 97.1427 22.6373 97.1427 24.8458V25.809H94.2419C90.7094 25.809 88.2062 26.9837 88.2062 30.2964ZM81.188 33.938H83.6677V25.5741C83.6677 23.6241 84.8608 22.7548 86.3814 22.7548C86.8961 22.7548 87.4342 22.7783 87.9722 22.8723V20.4524C87.5044 20.2879 87.0833 20.2644 86.6622 20.2644C85.2819 20.2644 84.2058 21.0867 83.6677 22.2379L83.3636 20.6168H81.188V33.938ZM169.15 33.938H171.629V25.5741C171.629 23.6241 172.823 22.7548 174.343 22.7548C174.858 22.7548 175.396 22.7783 175.934 22.8723V20.4524C175.466 20.2879 175.045 20.2644 174.624 20.2644C173.244 20.2644 172.168 21.0867 171.629 22.2379L171.325 20.6168H169.15V33.938ZM122.525 22.7548V20.5698H119.812V16.7638L117.262 17.1632V20.5698H115.343V22.7548H117.262V31.2362C117.262 33.1392 117.963 34.2904 120.747 34.2904C121.356 34.2904 122.268 34.1729 122.829 34.0085V32.1054C122.245 32.2699 121.707 32.2934 121.309 32.2934C120.139 32.2934 119.812 31.7295 119.812 30.5078V22.7548H122.525ZM197.363 22.7548V20.5698H194.626V16.7638L192.076 17.1632V20.5698H190.158V22.7548H192.076V31.2362C192.076 33.1392 192.778 34.2904 195.562 34.2904C196.17 34.2904 197.082 34.1729 197.644 34.0085V32.1054C197.059 32.2699 196.521 32.2934 196.123 32.2934C194.953 32.2934 194.626 31.7295 194.626 30.5078V22.7548H197.363ZM160.4 32.1994C158.014 32.1994 156.47 30.5313 156.47 27.2187C156.47 24.047 158.061 22.2614 160.424 22.2614C162.81 22.2614 164.214 24.0235 164.214 27.3596C164.214 30.6018 162.763 32.1994 160.4 32.1994ZM204.755 32.1994C202.369 32.1994 200.825 30.5313 200.825 27.2187C200.825 24.047 202.416 22.2614 204.779 22.2614C207.165 22.2614 208.569 24.0235 208.569 27.3596C208.592 30.6018 207.118 32.1994 204.755 32.1994ZM177.665 33.938H180.098V26.2319C180.098 24.0235 181.057 22.4729 183.35 22.4729C185.502 22.4729 186.157 23.3891 186.157 25.6446V33.9145H188.637V24.9397C188.637 21.862 187.35 20.2644 184.449 20.2644C182.461 20.2644 180.987 20.9927 180.098 22.2614L179.794 20.5698H177.689V33.938H177.665ZM102.757 33.938H105.167V26.2319C105.167 24.0235 106.126 22.4729 108.419 22.4729C110.571 22.4729 111.226 23.3891 111.226 25.6446V33.9145H113.706V24.9397C113.706 21.862 112.419 20.2644 109.518 20.2644C107.53 20.2644 106.056 20.9927 105.167 22.2614L104.863 20.5698H102.757V33.938ZM213.552 33.938H215.961V26.2319C215.961 24.0235 216.92 22.4729 219.213 22.4729C221.365 22.4729 222.02 23.3891 222.02 25.6446V33.9145H224.5V24.9397C224.5 21.862 223.213 20.2644 220.313 20.2644C218.324 20.2644 216.85 20.9927 215.961 22.2614L215.657 20.5698H213.552V33.938ZM139.486 15.9885V13.827H125.333V15.9885H131.111V33.9145H133.778V15.9885H139.486ZM140.773 33.938H143.182V26.2319C143.182 24.0235 144.118 22.4729 146.434 22.4729C148.586 22.4729 149.241 23.3891 149.241 25.6446V33.9145H151.721V24.9397C151.721 21.862 150.434 20.2644 147.534 20.2644C145.545 20.2644 144.071 20.9927 143.182 22.2614V13.827H140.773V33.938ZM71.2455 25.9735H75.9711V30.4374C74.5207 31.706 72.3216 32.1994 70.5437 32.1994C66.0988 32.1994 63.5722 29.3096 63.5722 24.2349C63.5722 18.8548 66.2859 15.871 70.4969 15.871C73 15.871 74.8716 16.7638 76.6495 18.4554L78.2169 16.6698C76.6261 14.9078 73.889 13.6156 70.7776 13.6156C64.508 13.6156 60.7883 18.009 60.7883 24.1644C60.7883 30.2024 63.8763 34.3844 70.5904 34.3844C74.2867 34.3844 77.1642 32.7633 78.5912 31.2127V23.9295H71.2689V25.9735H71.2455ZM160.587 20.2409C156.189 20.2409 153.873 23.2952 153.873 27.3126C153.873 31.4711 156.166 34.2199 160.283 34.2199C164.377 34.2199 166.927 31.5181 166.927 27.2422C166.927 22.8488 164.564 20.2409 160.587 20.2409ZM204.943 20.2409C200.521 20.2409 198.229 23.2952 198.229 27.3126C198.229 31.4711 200.521 34.2199 204.639 34.2199C208.732 34.2199 211.282 31.5181 211.282 27.2422C211.282 22.8488 208.92 20.2409 204.943 20.2409Z" fill="#231F20"/>
<path d="M30.3994 16.2939C33.5342 17.3041 36.014 19.63 37.6983 22.9662C37.9323 23.4126 38.0492 24.0704 37.9089 24.4698C37.9557 24.3054 38.0259 24.1644 38.0726 23.9999C42.0964 11.3131 27.8494 2.78479 20.6207 6.61433C20.4803 6.68481 20.3399 6.75529 20.1996 6.84927C10.9121 12.3939 7.77731 24.3993 13.0644 33.8205C9.27453 26.5608 17.7432 12.2529 30.3994 16.2939Z" fill="url(#paint0_linear_1346_2433)"/>
<path d="M22.7261 24C23.732 20.8518 26.048 18.3615 29.37 16.6699C29.8145 16.4349 30.4695 16.3175 30.8672 16.4584C30.7035 16.4115 30.5631 16.341 30.3993 16.294C17.7665 12.253 9.27448 26.5609 13.0643 33.8206C13.1345 33.9615 13.2047 34.1025 13.2983 34.2435C18.8427 43.5941 30.7736 46.7423 40.1547 41.4091C32.9493 45.2152 18.7023 36.6868 22.7261 24Z" fill="url(#paint1_linear_1346_2433)"/>
<path d="M30.3994 31.7061C27.2646 30.6958 24.7848 28.3699 23.1005 25.0338C22.8665 24.5874 22.7496 23.9296 22.8899 23.5302C22.8431 23.6946 22.7729 23.8356 22.7262 24C18.7024 36.6868 32.9494 45.2152 40.1781 41.4091C40.3185 41.3387 40.4589 41.2682 40.5992 41.1742C49.9101 35.6061 53.0449 23.6241 47.7344 14.203C51.5009 21.4392 43.0322 35.7471 30.3994 31.7061Z" fill="url(#paint2_linear_1346_2433)"/>
<path d="M38.0726 24C37.0666 27.1482 34.7506 29.6386 31.4287 31.3302C30.9842 31.5651 30.3291 31.6826 29.9314 31.5416C30.0952 31.5886 30.2356 31.6591 30.3993 31.7061C43.0321 35.747 51.5242 21.4391 47.7109 14.1795C47.6408 14.0385 47.5706 13.8975 47.477 13.7566C41.9326 4.40594 30.0016 1.25773 20.6206 6.59089C27.8494 2.78485 42.0964 11.3132 38.0726 24Z" fill="url(#paint3_linear_1346_2433)"/>
<defs>
<linearGradient id="paint0_linear_1346_2433" x1="38.7184" y1="18.3474" x2="10.1945" y2="20.3336" gradientUnits="userSpaceOnUse">
<stop stop-color="#4F2683"/>
<stop offset="0.1185" stop-color="#4F2683"/>
<stop offset="0.1209" stop-color="#4F2683"/>
<stop offset="0.3094" stop-color="#684795"/>
<stop offset="0.5492" stop-color="#836AA9"/>
<stop offset="0.7459" stop-color="#947FB5"/>
<stop offset="0.8736" stop-color="#9A87B9"/>
<stop offset="1" stop-color="#8C76AF"/>
</linearGradient>
<linearGradient id="paint1_linear_1346_2433" x1="24.7517" y1="15.6467" x2="26.7642" y2="44.3031" gradientUnits="userSpaceOnUse">
<stop stop-color="#4F2683"/>
<stop offset="0.1185" stop-color="#4F2683"/>
<stop offset="0.1209" stop-color="#4F2683"/>
<stop offset="0.3094" stop-color="#684795"/>
<stop offset="0.5492" stop-color="#836AA9"/>
<stop offset="0.7459" stop-color="#947FB5"/>
<stop offset="0.8736" stop-color="#9A87B9"/>
<stop offset="1" stop-color="#8C76AF"/>
</linearGradient>
<linearGradient id="paint2_linear_1346_2433" x1="22.0817" y1="29.6718" x2="50.6184" y2="27.6848" gradientUnits="userSpaceOnUse">
<stop stop-color="#4F2683"/>
<stop offset="0.1185" stop-color="#4F2683"/>
<stop offset="0.1209" stop-color="#4F2683"/>
<stop offset="0.3094" stop-color="#684795"/>
<stop offset="0.5492" stop-color="#836AA9"/>
<stop offset="0.7459" stop-color="#947FB5"/>
<stop offset="0.8736" stop-color="#9A87B9"/>
<stop offset="1" stop-color="#8C76AF"/>
</linearGradient>
<linearGradient id="paint3_linear_1346_2433" x1="36.0278" y1="32.3546" x2="34.0152" y2="3.69662" gradientUnits="userSpaceOnUse">
<stop stop-color="#4F2683"/>
<stop offset="0.1185" stop-color="#4F2683"/>
<stop offset="0.1209" stop-color="#4F2683"/>
<stop offset="0.3094" stop-color="#684795"/>
<stop offset="0.5492" stop-color="#836AA9"/>
<stop offset="0.7459" stop-color="#947FB5"/>
<stop offset="0.8736" stop-color="#9A87B9"/>
<stop offset="1" stop-color="#8C76AF"/>
</linearGradient>
</defs>
</svg>
